<svg xmlns="http://www.w3.org/2000/svg" viewBox="0 0 256 384" width="256" height="384"><defs><linearGradient id="m" x1="0" y1="0" x2="1" y2="1"><stop offset="0" stop-color="#f4f6fa"/><stop offset="1" stop-color="#9aa0ab"/></linearGradient><linearGradient id="g0" gradientUnits="userSpaceOnUse" x1="70" y1="120" x2="190" y2="340"><stop offset="0" stop-color="#6b6f80"/><stop offset="1" stop-color="#3c3f4f"/></linearGradient><linearGradient id="g1" gradientUnits="userSpaceOnUse" x1="70" y1="120" x2="190" y2="340"><stop offset="0" stop-color="#ffd6e4"/><stop offset="1" stop-color="#ff9bbd"/></linearGradient></defs>
<g fill="#1d1f2a" opacity=".16" transform="translate(4 7)"><g><circle cx="128" cy="225" r="96"/></g><g><circle cx="128" cy="225" r="34"/></g></g>
<g fill="#dfe3ea" stroke="#c4c9d4" stroke-width="9" stroke-linejoin="round"><g><circle cx="128" cy="225" r="96"/></g><g><circle cx="128" cy="225" r="34"/></g></g>
<g fill="url(#g0)" stroke="#1d1f2a" stroke-width="2"><circle cx="128" cy="225" r="96"/></g><g fill="url(#g1)" stroke="#c2487a" stroke-width="2"><circle cx="128" cy="225" r="34"/></g><circle cx="128" cy="225" r="70" fill="none" stroke="#fff" opacity=".14" stroke-width="1.5"/><path d="M70 182 A66 66 0 0 1 120 160" fill="none" stroke="#fff" opacity=".55" stroke-width="5" stroke-linecap="round"/><circle fill="#fffaf0" stroke="#5a3a24" cx="128" cy="225" r="7"/>
<g fill="none" stroke="url(#m)" stroke-width="4"><circle cx="128" cy="92" r="9"/><ellipse cx="128" cy="42" rx="6" ry="10"/><ellipse cx="128" cy="60" rx="3" ry="9"/><ellipse cx="128" cy="76" rx="6" ry="9"/><circle cx="128" cy="17" r="11"/></g>
<g fill="none" stroke="#7d838e" stroke-width=".8" opacity=".7"><circle cx="128" cy="17" r="13"/><circle cx="128" cy="92" r="11"/></g></svg>