<svg xmlns="http://www.w3.org/2000/svg" viewBox="0 0 256 384" width="256" height="384"><defs><linearGradient id="m" x1="0" y1="0" x2="1" y2="1"><stop offset="0" stop-color="#f4f6fa"/><stop offset="1" stop-color="#9aa0ab"/></linearGradient><linearGradient id="b" gradientUnits="userSpaceOnUse" x1="62" y1="160" x2="194" y2="290"><stop offset="0" stop-color="#ff8a65"/><stop offset="1" stop-color="#d62839"/></linearGradient><linearGradient id="g" gradientUnits="userSpaceOnUse" x1="76" y1="130" x2="180" y2="160"><stop offset="0" stop-color="#ffe27a"/><stop offset="1" stop-color="#c98e1c"/></linearGradient><g id="a"><rect x="78" y="128" width="100" height="26" rx="9"/><rect x="62" y="150" width="132" height="134" rx="60"/><rect x="78" y="280" width="100" height="22" rx="9"/><rect x="119" y="300" width="18" height="40" rx="7"/></g></defs>
<use href="#a" fill="#1d1f2a" opacity=".16" transform="translate(4 7)"/>
<use href="#a" fill="#dfe3ea" stroke="#c4c9d4" stroke-width="9" stroke-linejoin="round"/>
<rect x="62" y="150" width="132" height="134" rx="60" fill="url(#b)" stroke="#8f1824" stroke-width="2"/><path d="M128 150V284M96 156C80 190 80 244 96 280M160 156C176 190 176 244 160 280" fill="none" stroke="#8f1824" stroke-width="2" opacity=".55"/><rect x="78" y="128" width="100" height="26" rx="9" fill="url(#g)" stroke="#8a5d0b" stroke-width="2"/><rect x="78" y="280" width="100" height="22" rx="9" fill="url(#g)" stroke="#8a5d0b" stroke-width="2"/><rect x="119" y="300" width="18" height="40" rx="7" fill="url(#g)" stroke="#8a5d0b" stroke-width="2"/><ellipse cx="96" cy="196" rx="12" ry="26" fill="#fff" opacity=".35" transform="rotate(12 96 196)"/><circle cx="128" cy="218" r="14" fill="#ffe27a" opacity=".85"/>
<g fill="none" stroke="url(#m)" stroke-width="4"><circle cx="128" cy="92" r="9"/><ellipse cx="128" cy="42" rx="6" ry="10"/><ellipse cx="128" cy="60" rx="3" ry="9"/><ellipse cx="128" cy="76" rx="6" ry="9"/><circle cx="128" cy="17" r="11"/></g>
<g fill="none" stroke="#7d838e" stroke-width=".8" opacity=".7"><circle cx="128" cy="17" r="13"/><circle cx="128" cy="92" r="11"/></g></svg>
