<svg xmlns="http://www.w3.org/2000/svg" viewBox="0 0 256 384" width="256" height="384"><defs><linearGradient id="m" x1="0" y1="0" x2="1" y2="1"><stop offset="0" stop-color="#f4f6fa"/><stop offset="1" stop-color="#9aa0ab"/></linearGradient><linearGradient id="g" gradientUnits="userSpaceOnUse" x1="44" y1="140" x2="212" y2="300"><stop offset="0" stop-color="#fff0a0"/><stop offset="1" stop-color="#e0a526"/></linearGradient><g id="a"><path d="M52 292L44 168L94 214L128 140L162 214L212 168L204 292Z"/><rect x="48" y="282" width="160" height="34" rx="9"/></g></defs>
<use href="#a" fill="#1d1f2a" opacity=".16" transform="translate(4 7)"/>
<use href="#a" fill="#dfe3ea" stroke="#c4c9d4" stroke-width="9" stroke-linejoin="round"/>
<path d="M52 292L44 168L94 214L128 140L162 214L212 168L204 292Z" fill="url(#g)" stroke="#b8860b" stroke-width="2" stroke-linejoin="round"/><rect x="48" y="282" width="160" height="34" rx="9" fill="url(#g)" stroke="#b8860b" stroke-width="2"/><circle cx="44" cy="166" r="9" fill="#e5484d" stroke="#8f1824" stroke-width="1.5"/><circle cx="128" cy="138" r="10" fill="#3b82f6" stroke="#1e3a8a" stroke-width="1.5"/><circle cx="212" cy="166" r="9" fill="#22c55e" stroke="#166534" stroke-width="1.5"/><circle cx="92" cy="299" r="8" fill="#e5484d" stroke="#8f1824" stroke-width="1.5"/><circle cx="128" cy="299" r="8" fill="#3b82f6" stroke="#1e3a8a" stroke-width="1.5"/><circle cx="164" cy="299" r="8" fill="#22c55e" stroke="#166534" stroke-width="1.5"/><ellipse cx="86" cy="228" rx="14" ry="7" fill="#fff" opacity=".5" transform="rotate(-35 86 228)"/>
<g fill="none" stroke="url(#m)" stroke-width="4"><circle cx="128" cy="92" r="9"/><ellipse cx="128" cy="42" rx="6" ry="10"/><ellipse cx="128" cy="60" rx="3" ry="9"/><ellipse cx="128" cy="76" rx="6" ry="9"/><circle cx="128" cy="17" r="11"/></g>
<g fill="none" stroke="#7d838e" stroke-width=".8" opacity=".7"><circle cx="128" cy="17" r="13"/><circle cx="128" cy="92" r="11"/></g></svg>
