<svg xmlns="http://www.w3.org/2000/svg" viewBox="0 0 256 384" width="256" height="384"><defs><linearGradient id="m" x1="0" y1="0" x2="1" y2="1"><stop offset="0" stop-color="#f4f6fa"/><stop offset="1" stop-color="#9aa0ab"/></linearGradient><linearGradient id="g0" gradientUnits="userSpaceOnUse" x1="70" y1="120" x2="190" y2="340"><stop offset="0" stop-color="#fff1a8"/><stop offset="1" stop-color="#ffd34d"/></linearGradient></defs>
<g fill="#1d1f2a" opacity=".16" transform="translate(4 7)"><g><path d="M128.0 121.0L156.2 186.2L226.9 192.9L173.7 239.8L189.1 309.1L128.0 273.0L66.9 309.1L82.3 239.8L29.1 192.9L99.8 186.2Z"/></g></g>
<g fill="#dfe3ea" stroke="#c4c9d4" stroke-width="9" stroke-linejoin="round"><g><path d="M128.0 121.0L156.2 186.2L226.9 192.9L173.7 239.8L189.1 309.1L128.0 273.0L66.9 309.1L82.3 239.8L29.1 192.9L99.8 186.2Z"/></g></g>
<g fill="url(#g0)" stroke="#b8860b" stroke-width="2"><path d="M128.0 121.0L156.2 186.2L226.9 192.9L173.7 239.8L189.1 309.1L128.0 273.0L66.9 309.1L82.3 239.8L29.1 192.9L99.8 186.2Z"/></g><circle fill="#7a4a10" cx="112" cy="222" r="5"/><circle fill="#7a4a10" cx="144" cy="222" r="5"/><path d="M118 238 Q128 247 138 238" fill="none" stroke="#7a4a10" stroke-width="3" stroke-linecap="round"/><ellipse cx="100" cy="185" rx="16" ry="9" fill="#fff" opacity=".55" transform="rotate(-40 100 185)"/><circle cx="122" cy="200" r="3" fill="#fff" opacity=".6"/>
<g fill="none" stroke="url(#m)" stroke-width="4"><circle cx="128" cy="92" r="9"/><ellipse cx="128" cy="42" rx="6" ry="10"/><ellipse cx="128" cy="60" rx="3" ry="9"/><ellipse cx="128" cy="76" rx="6" ry="9"/><circle cx="128" cy="17" r="11"/></g>
<g fill="none" stroke="#7d838e" stroke-width=".8" opacity=".7"><circle cx="128" cy="17" r="13"/><circle cx="128" cy="92" r="11"/></g></svg>