<svg xmlns="http://www.w3.org/2000/svg" viewBox="0 0 256 384" width="256" height="384"><defs><linearGradient id="m" x1="0" y1="0" x2="1" y2="1"><stop offset="0" stop-color="#f4f6fa"/><stop offset="1" stop-color="#9aa0ab"/></linearGradient><linearGradient id="g0" gradientUnits="userSpaceOnUse" x1="70" y1="120" x2="190" y2="340"><stop offset="0" stop-color="#fff1a8"/><stop offset="1" stop-color="#ffd34d"/></linearGradient></defs>
<g fill="#1d1f2a" opacity=".16" transform="translate(4 7)"><g><path d="M58 118 H198 V208 A16 16 0 0 0 198 240 V332 H58 V240 A16 16 0 0 0 58 208Z"/></g></g>
<g fill="#dfe3ea" stroke="#c4c9d4" stroke-width="9" stroke-linejoin="round"><g><path d="M58 118 H198 V208 A16 16 0 0 0 198 240 V332 H58 V240 A16 16 0 0 0 58 208Z"/></g></g>
<g fill="url(#g0)" stroke="#b8860b" stroke-width="2"><path d="M58 118 H198 V208 A16 16 0 0 0 198 240 V332 H58 V240 A16 16 0 0 0 58 208Z"/></g><path d="M74 224 H182" stroke="#b8860b" stroke-width="2.5" stroke-dasharray="6 5"/><path fill="#ff6f61" d="M128.0 146.0L133.9 161.9L150.8 162.6L137.5 173.1L142.1 189.4L128.0 180.0L113.9 189.4L118.5 173.1L105.2 162.6L122.1 161.9Z"/><path d="M88 276 H168 M88 296 H146" stroke="#b8860b" stroke-width="5" stroke-linecap="round" opacity=".7"/><ellipse cx="84" cy="150" rx="12" ry="20" fill="#fff" opacity=".55" transform="rotate(0 84 150)"/><circle cx="102" cy="176" r="3" fill="#fff" opacity=".6"/>
<g fill="none" stroke="url(#m)" stroke-width="4"><circle cx="128" cy="92" r="9"/><ellipse cx="128" cy="42" rx="6" ry="10"/><ellipse cx="128" cy="60" rx="3" ry="9"/><ellipse cx="128" cy="76" rx="6" ry="9"/><circle cx="128" cy="17" r="11"/></g>
<g fill="none" stroke="#7d838e" stroke-width=".8" opacity=".7"><circle cx="128" cy="17" r="13"/><circle cx="128" cy="92" r="11"/></g></svg>