<svg xmlns="http://www.w3.org/2000/svg" viewBox="0 0 256 384" width="256" height="384"><defs><linearGradient id="m" x1="0" y1="0" x2="1" y2="1"><stop offset="0" stop-color="#f4f6fa"/><stop offset="1" stop-color="#9aa0ab"/></linearGradient><linearGradient id="g0" gradientUnits="userSpaceOnUse" x1="70" y1="120" x2="190" y2="340"><stop offset="0" stop-color="#ffd1b8"/><stop offset="1" stop-color="#ff8f6b"/></linearGradient></defs>
<g fill="#1d1f2a" opacity=".16" transform="translate(4 7)"><g><rect x="52" y="166" width="152" height="160" rx="22"/></g></g>
<g fill="#dfe3ea" stroke="#c4c9d4" stroke-width="9" stroke-linejoin="round"><g><rect x="52" y="166" width="152" height="160" rx="22"/></g></g>
<g fill="url(#g0)" stroke="#b04a28" stroke-width="2"><rect x="52" y="166" width="152" height="160" rx="22"/></g><path d="M98 166 V142 Q98 128 112 128 H144 Q158 128 158 142 V166" fill="none" stroke="#9aa0b4" stroke-width="9" stroke-linecap="round"/><path d="M98 166 V142 Q98 128 112 128 H144 Q158 128 158 142 V166" fill="none" stroke="#fff" stroke-width="4" stroke-linecap="round"/><path d="M92 166 V326 M164 166 V326" stroke="#b04a28" stroke-width="6" opacity=".55"/><rect x="112" y="224" width="32" height="24" rx="6" fill="#e9ecf1" stroke="#9aa0b4" stroke-width="2.5"/><ellipse cx="78" cy="196" rx="10" ry="16" fill="#fff" opacity=".55" transform="rotate(0 78 196)"/><circle cx="94" cy="218" r="3" fill="#fff" opacity=".6"/>
<g fill="none" stroke="url(#m)" stroke-width="4"><circle cx="128" cy="92" r="9"/><ellipse cx="128" cy="42" rx="6" ry="10"/><ellipse cx="128" cy="60" rx="3" ry="9"/><ellipse cx="128" cy="76" rx="6" ry="9"/><circle cx="128" cy="17" r="11"/></g>
<g fill="none" stroke="#7d838e" stroke-width=".8" opacity=".7"><circle cx="128" cy="17" r="13"/><circle cx="128" cy="92" r="11"/></g></svg>